<svg version="1.1" xmlns="http://www.w3.org/2000/svg" xmlns:xlink="http://www.w3.org/1999/xlink" width="212.92985" height="50.2168" viewBox="0,0,212.92985,50.2168"><g transform="translate(-133.53508,-154.8916)"><g data-paper-data="{&quot;isPaintingLayer&quot;:true}" fill-rule="nonzero" stroke="none" stroke-width="0" stroke-linecap="butt" stroke-linejoin="miter" stroke-miterlimit="10" stroke-dasharray="" stroke-dashoffset="0" style="mix-blend-mode: normal"><path d="" fill="#ff0000"/><path d="M346.46492,158.95309c0,25.49088 -47.66597,46.15531 -106.46492,46.15531c-58.79895,0 -106.46492,-20.66444 -106.46492,-46.15531c0,-11.66578 67.83112,17.06515 84.29572,8.93912c15.49032,-7.64518 4.7791,11.91607 16.67593,4.57576c3.08885,-1.90581 -3.54149,-0.59139 3.03166,-0.59139c6.56925,0 7.14767,-2.65325 11.99648,0.8556c11.88914,8.6036 24.34976,0.14465 33.90838,-2.55901c2.0899,-0.59113 17.87416,-6.76699 20.36732,-5.85237c23.0786,8.46645 42.65436,-19.50079 42.65436,-5.36771z" fill="#00f3ff"/></g></g></svg>